PathFileType	4	(X/Y/Z)	C:/Users/opensim2020/Desktop/walking_exp_matlab/subject02_walking07_straight_01.trc	
DataRate	CameraRate	NumFrames	NumMarkers	Units	OrigDataRate	OrigDataStartFrame	OrigNumFrames	
100.00	100.00	8	50	mm	100.00	736	176	
Frame#	Time	LFHD			RFHD			LBHD			RBHD			C7			T10			CLAV			STRN			RBAK			LSHO			LUPA			LELB			LFRM			LWRA			LWRB			LFIN			RSHO			RUPA			RELB			RFRM			RWRA			RWRB			RFIN			LASI			RASI			LPSI			RPSI			LTHI			LKNE			LTIB			LANK			LHEE			LTOE			RTHI			RKNE			RTIB			RANK			RHEE			RTOE			*39			*40			*41			*42			*43			*44			*45			*46			*47			*48			*49			
		X1	Y1	Z1	X2	Y2	Z2	X3	Y3	Z3	X4	Y4	Z4	X5	Y5	Z5	X6	Y6	Z6	X7	Y7	Z7	X8	Y8	Z8	X9	Y9	Z9	X10	Y10	Z10	X11	Y11	Z11	X12	Y12	Z12	X13	Y13	Z13	X14	Y14	Z14	X15	Y15	Z15	X16	Y16	Z16	X17	Y17	Z17	X18	Y18	Z18	X19	Y19	Z19	X20	Y20	Z20	X21	Y21	Z21	X22	Y22	Z22	X23	Y23	Z23	X24	Y24	Z24	X25	Y25	Z25	X26	Y26	Z26	X27	Y27	Z27	X28	Y28	Z28	X29	Y29	Z29	X30	Y30	Z30	X31	Y31	Z31	X32	Y32	Z32	X33	Y33	Z33	X34	Y34	Z34	X35	Y35	Z35	X36	Y36	Z36	X37	Y37	Z37	X38	Y38	Z38	X39	Y39	Z39	X40	Y40	Z40	X41	Y41	Z41	X42	Y42	Z42	X43	Y43	Z43	X44	Y44	Z44	X45	Y45	Z45	X46	Y46	Z46	X47	Y47	Z47	X48	Y48	Z48	X49	Y49	Z49	X50	Y50	Z50	

89	0.880	1338.21997	-171.65129	1748.19397	1482.14209	-171.45544	1734.68616	1330.48755	-289.46588	1653.74658	1472.99292	-301.03391	1637.04651	1409.73987	-329.96231	1521.95105	1417.79211	-385.79410	1249.10608	1396.23328	-191.08386	1456.06592	1412.13416	-138.97029	1283.34851	1483.48425	-385.45602	1353.36951	1227.37854	-262.89853	1489.16479	1148.81592	-269.10104	1284.37720	1140.94885	-265.27905	1143.84839	1128.33777	-249.87476	1013.52472	1161.87024	-189.79469	890.80109	1126.44214	-233.81718	892.38403	1121.20313	-212.33868	829.69177	1593.59558	-240.98212	1498.32300	1685.13086	-251.45580	1308.95239	1702.53857	-221.60699	1164.08191	1716.20349	-174.50023	1051.25354	1685.36511	-114.16360	931.96552	1727.20813	-152.54980	923.13239	1720.08508	-108.41313	864.96216	1292.92175	-142.35497	989.84271	1547.04089	-166.63649	969.73218	1352.95886	-358.97440	1032.27783	1467.30408	-374.09854	1027.07690	1243.32910	-167.27930	680.06134	1281.84644	-175.81728	477.30957	1286.81580	-217.74258	285.97278	1334.31665	-203.01141	66.56265	1383.39111	-241.26849	39.55273	1333.89575	-45.91310	33.05792	1629.06860	-241.86789	667.81097	1626.68347	-236.47861	468.18427	1613.20251	-383.57004	359.11523	1564.74597	-520.16040	228.91695	1497.29883	-566.55243	204.59068	1609.47485	-464.42404	85.09632	1424.53979	-283.77539	1800.05310	-3360.38965	2845.17407	1033.88599																											 
90	0.890	1336.47473	-163.00061	1749.46460	1480.40002	-162.91661	1736.14514	1328.70190	-280.44028	1654.54285	1471.56714	-291.93967	1638.08643	1407.32568	-320.74786	1523.22839	1414.92859	-377.01001	1250.44409	1394.78223	-181.94791	1457.17859	1410.79395	-130.28017	1284.24060	1480.38855	-377.14600	1354.40173	1225.62891	-252.46272	1490.78137	1146.52942	-255.85933	1286.54626	1137.82312	-249.20190	1145.70923	1126.29321	-229.36995	1015.64246	1161.76294	-166.74026	895.03540	1125.23181	-209.50171	894.88348	1120.85107	-185.62917	833.48730	1591.72290	-232.69730	1499.56519	1683.15405	-244.30389	1310.18396	1700.14880	-215.07727	1165.23059	1714.34216	-170.00243	1051.63843	1684.18237	-112.53204	930.79785	1726.09583	-150.96898	923.02045	1719.21777	-108.21319	863.71295	1291.66333	-133.79189	990.55328	1546.09778	-158.76537	971.84814	1350.78174	-350.46115	1033.33447	1464.93103	-365.83209	1028.16724	1242.25769	-162.72066	679.86975	1280.84509	-174.40157	477.31207	1286.65686	-217.69460	286.18073	1334.35583	-203.07457	66.62779	1383.85779	-240.94139	39.61583	1333.87805	-45.87465	33.01944	1628.49194	-227.99637	670.01355	1625.72559	-219.12668	470.59247	1611.50244	-364.36578	359.34430	1562.68762	-497.88815	226.48674	1494.97864	-543.51465	199.32660	1611.29968	-438.78329	86.21684	1422.61951	-275.38519	1800.78809	-3357.39600	2845.97974	1034.08020																											 
91	0.900	1334.79602	-154.35817	1750.63367	1478.75574	-154.43575	1737.57727	1327.01941	-271.46820	1655.25378	1469.86511	-283.08072	1638.92896	1405.01367	-311.63779	1524.44006	1412.09814	-368.32294	1251.75037	1393.42627	-172.87689	1458.17090	1409.47815	-121.62418	1285.03845	1477.58716	-368.97070	1355.88086	1224.00708	-242.00949	1492.30225	1144.28918	-242.63681	1288.69128	1134.66028	-233.33089	1147.84497	1124.21387	-209.58488	1018.56055	1161.84644	-143.68044	899.89453	1124.29639	-185.24924	898.01898	1120.57532	-159.22559	837.72180	1589.81763	-224.90590	1500.58972	1681.28052	-237.30431	1311.29077	1697.85413	-208.68448	1166.21460	1712.51538	-165.58070	1052.01697	1683.49365	-110.33585	930.18231	1725.03735	-149.31154	923.03357	1718.64111	-107.59936	862.90912	1290.28503	-125.55507	991.33356	1544.89502	-150.71970	973.95258	1348.86694	-342.16147	1034.39233	1462.82776	-357.66837	1029.16028	1241.41077	-158.41507	679.71649	1279.85022	-173.05779	477.25909	1286.52673	-217.66010	286.41074	1334.41870	-203.11563	66.63766	1383.86584	-241.04585	39.65698	1333.88782	-45.84095	32.96359	1627.78149	-214.27824	672.34180	1624.91516	-202.09334	473.17819	1609.79993	-345.09998	359.01721	1560.52600	-475.30890	222.64749	1492.86743	-519.59564	193.08870	1613.08972	-412.41687	86.20581	1420.55652	-267.31329	1801.56799	-3357.56396	2845.78198	1034.20483																											 
92	0.910	1333.40845	-145.62605	1752.04395	1477.17749	-146.03838	1738.86292	1325.32617	-262.44186	1655.90613	1468.15759	-274.25287	1639.66260	1402.71643	-302.56296	1525.52405	1409.28162	-359.60760	1252.98474	1392.09863	-163.80653	1459.10767	1408.24744	-112.90691	1285.75146	1474.59741	-360.26932	1356.73950	1222.45947	-231.71574	1493.86084	1142.05811	-229.70567	1290.89636	1131.57227	-217.62018	1150.11157	1122.29053	-189.55573	1021.07770	1161.85815	-120.70409	905.19659	1123.26770	-161.48271	901.64362	1120.72546	-132.95566	842.23187	1588.04688	-216.76529	1501.60510	1679.28162	-230.01431	1312.27930	1695.34717	-202.76004	1166.94836	1710.95740	-161.07904	1052.45850	1682.40833	-108.48907	929.29449	1724.12036	-147.40154	923.06897	1717.86206	-107.02444	862.07434	1288.71265	-117.56653	992.19330	1543.37805	-142.47133	975.97681	1347.15112	-333.80579	1035.02783	1461.06653	-349.48523	1030.01050	1240.70740	-154.33893	679.61090	1278.98364	-171.69760	477.24048	1286.25989	-217.45078	286.65433	1334.40637	-203.13168	66.63438	1383.92224	-241.04829	39.75986	1333.90820	-45.78164	32.89030	1627.45264	-201.45605	674.66168	1623.71155	-185.51678	475.70367	1608.06140	-325.79306	358.29431	1558.91284	-451.73065	217.97144	1490.99915	-494.71219	185.72752	1614.87524	-385.22269	85.26015	1418.68152	-259.11142	1802.28296																														 
93	0.920	1331.73315	-137.19281	1752.92664	1475.66650	-137.73164	1739.98206	1323.62024	-253.51509	1656.39526	1466.46826	-265.48349	1640.26501	1400.57092	-293.51767	1526.65393	1406.58362	-351.01404	1254.10828	1390.83545	-154.72614	1459.91980	1406.94250	-104.38923	1286.29297	1472.21704	-352.19382	1358.32642	1220.99097	-221.51103	1495.30896	1140.11633	-216.77769	1293.33594	1128.54980	-201.99850	1152.47644	1120.14587	-169.17514	1024.13599	1161.64697	-97.80944	910.93256	1122.31824	-137.74947	905.72504	1120.54883	-106.82686	847.62799	1586.33960	-208.54639	1502.49768	1677.57434	-222.74123	1313.17639	1693.47424	-196.61542	1167.84900	1709.25562	-156.82129	1052.73865	1681.05957	-106.97775	928.18274	1723.23840	-145.49408	923.12152	1717.09741	-106.25633	861.34735	1286.96240	-109.76287	992.97528	1541.66394	-133.98489	977.90320	1345.68481	-325.56873	1035.30688	1459.67334	-341.29254	1030.78442	1239.75842	-150.27095	679.50934	1278.03394	-170.04936	477.24597	1285.87891	-216.93976	286.90622	1334.36646	-203.17146	66.72501	1383.88098	-241.06221	39.87152	1333.91394	-45.76558	32.83518	1626.86768	-188.74948	676.92767	1622.63818	-169.34404	478.26498	1606.21094	-306.40924	357.02798	1557.32349	-427.65207	212.34424	1489.47522	-468.90021	177.33603	1616.18811	-357.03323	83.22794	1416.92456	-250.97794	1802.91260																														 
94	0.930	1330.35217	-128.58847	1753.83069	1474.32300	-129.42184	1740.98352	1322.06592	-244.51616	1656.96265	1464.78674	-256.74741	1640.73706	1398.53857	-284.30902	1527.57617	1404.04163	-342.44351	1255.21973	1389.62891	-145.65431	1460.64539	1405.72058	-95.79662	1286.78699	1469.51404	-343.75568	1359.31128	1219.57727	-211.36957	1496.68152	1137.79822	-204.37556	1295.64941	1125.51306	-186.67752	1154.91736	1118.23999	-149.91101	1027.40918	1161.52209	-75.21323	916.98181	1121.45288	-114.16439	910.09180	1120.73657	-81.16743	853.02893	1584.66699	-200.43889	1503.09082	1676.02747	-215.47701	1313.92310	1691.41724	-190.82281	1168.47168	1707.29614	-152.88785	1052.74243	1680.17175	-104.89318	927.49561	1722.37537	-143.49454	923.15076	1716.42419	-105.19469	860.73828	1285.07422	-102.11396	993.66364	1539.75330	-125.34764	979.71570	1344.56152	-317.52652	1035.59485	1458.55542	-333.08289	1031.53894	1239.33594	-146.40297	679.31598	1277.23169	-168.26411	477.23840	1285.30774	-216.04083	287.12622	1334.00293	-203.79251	66.99123	1384.39929	-239.91957	39.09946	1333.86841	-45.75774	32.78046	1626.09216	-176.28851	679.07867	1621.50195	-153.34419	480.48154	1604.53088	-287.09656	355.30353	1556.01001	-402.84732	205.90150	1488.30591	-442.55042	168.61765	1617.12549	-328.00623	80.69116	1415.15381	-242.76477	1803.59644																														 
95	0.940	1329.02881	-119.93499	1754.63184	1472.98120	-121.16164	1741.77222	1320.36438	-235.37909	1657.24182	1462.80090	-248.21204	1640.98389	1396.61450	-275.10269	1528.43628	1401.64844	-333.83374	1256.14172	1388.50220	-136.65778	1461.21777	1404.59167	-87.11226	1287.22461	1467.18726	-335.68045	1360.48828	1218.30884	-201.27075	1497.99280	1135.72156	-191.91298	1297.80725	1122.46411	-171.46565	1157.26050	1116.07996	-130.33072	1030.86719	1161.28821	-52.74480	923.33575	1120.69824	-90.75468	914.80615	1120.83557	-55.59440	858.92871	1582.80322	-192.46840	1503.53210	1674.56555	-208.30269	1314.55383	1689.52881	-185.22780	1168.93848	1705.84204	-148.83121	1052.85229	1679.21680	-102.93800	926.66937	1721.57361	-141.43723	923.16351	1715.89636	-103.92971	860.40009	1283.02405	-94.59913	994.18848	1537.69141	-116.56623	981.39063	1343.69763	-309.66187	1035.78357	1457.77100	-324.93475	1032.38269	1238.99268	-142.54729	679.23340	1276.50757	-166.30911	477.15915	1284.81702	-214.85429	287.29669	1334.02698	-203.75215	66.91373	1384.35242	-239.94542	39.18526	1333.88171	-45.72795	32.79700	1625.45374	-164.20520	681.14459	1620.36011	-137.90453	482.72998	1603.06494	-267.61789	352.99997	1554.94653	-377.42130	198.89421	1487.45740	-414.74060	158.72255	1617.96497	-297.96722	77.77140	1413.70776	-234.45392	1804.10864																														 
96	0.950	1327.78650	-111.29158	1755.38806	1471.71130	-112.86152	1742.45288	1318.82141	-226.48186	1657.63306	1461.50269	-239.40514	1641.27844	1394.83093	-266.06760	1529.20605	1399.55261	-325.38876	1256.99890	1387.38269	-127.65992	1461.68872	1403.36145	-78.73636	1287.44788	1464.52942	-326.71832	1360.86633	1217.12183	-191.24736	1499.19031	1133.39539	-180.07024	1299.92883	1119.53906	-156.54443	1159.64429	1114.21362	-111.32094	1034.22583	1160.96423	-30.60233	929.87054	1119.87769	-67.85638	919.76111	1120.93433	-30.57000	865.26440	1581.56274	-184.15057	1503.94800	1673.14990	-201.31905	1314.98792	1687.47644	-179.96588	1169.09607	1704.40247	-145.03613	1052.77258	1678.12122	-101.31044	925.67303	1720.76855	-139.41580	923.04993	1715.29565	-102.88722	859.64252	1280.85144	-87.38196	994.50720	1535.58923	-107.76453	982.83478	1343.10693	-301.84680	1035.93518	1457.19995	-316.71957	1033.19702	1238.40930	-138.47292	679.09985	1275.90039	-164.21559	477.09805	1284.40686	-213.74232	287.64880	1334.00171	-203.70236	66.99384	1384.35864	-240.08990	39.40947	1333.82434	-45.71067	32.73294	1624.84399	-152.21606	683.03699	1618.95068	-122.74963	484.32770	1601.79163	-247.92786	350.17255	1553.97668	-351.50430	191.41882	1486.65869	-386.99445	149.34775	1618.63843	-267.08557	74.63144	1411.99841	-226.35146	1803.99792																														 
